<svg width="225" height="144" viewBox="0 0 225 144" fill="none" xmlns="http://www.w3.org/2000/svg">
<g filter="url(#filter0_d_1127_34)">
<path d="M104.954 63.2072C99.6927 60.9144 95.3954 56.8337 92.8095 51.6753C90.2236 46.5169 89.5128 40.6073 90.8009 34.975L82.5268 18.4771C78.6201 24.2673 76.3229 31.0074 75.8742 37.9965C75.4255 44.9855 76.8416 51.9682 79.9752 58.2182C83.1089 64.4683 87.8456 69.7574 93.6928 73.5354C99.54 77.3134 106.284 79.4424 113.223 79.7009L104.954 63.2072Z" fill="url(#paint0_linear_1127_34)"/>
<path d="M114.657 1.33547C109.36 1.33042 104.118 2.42055 99.2558 4.53852C94.3933 6.6565 90.0129 9.75734 86.3851 13.6496L93.5207 28.0765C95.6837 24.3371 98.7834 21.237 102.509 19.087C106.235 16.9369 110.456 15.8125 114.748 15.8265C119.041 15.8406 123.254 16.9925 126.966 19.1668C130.678 21.3412 133.758 24.4615 135.896 28.2149C138.035 31.9683 139.158 36.2229 139.152 40.552C139.147 44.8811 138.012 49.1326 135.863 52.8802C133.714 56.6278 130.626 59.7397 126.909 61.9039C123.191 64.0681 118.975 65.2086 114.682 65.2109C113.725 65.2095 112.768 65.1539 111.817 65.0444L118.952 79.4756C128.806 78.3439 137.858 73.4559 144.255 65.8124C150.652 58.1689 153.909 48.3483 153.36 38.3615C152.811 28.3748 148.497 18.9775 141.302 12.094C134.107 5.21051 124.574 1.36162 114.657 1.33547Z" fill="url(#paint1_linear_1127_34)"/>
</g>
<path d="M54.5079 124.408C48.6545 124.408 44.0725 119.898 44.0725 114.106C44.0723 112.723 44.345 111.354 44.8745 110.079C45.404 108.803 46.1799 107.647 47.1569 106.677C48.1339 105.707 49.2925 104.943 50.5653 104.429C51.838 103.915 53.1994 103.661 54.5703 103.683C60.4573 103.683 65.0056 108.207 65.0056 113.985C65.0045 115.367 64.731 116.736 64.201 118.011C63.6711 119.285 62.8951 120.441 61.9184 121.411C60.9417 122.381 59.7836 123.145 58.5114 123.66C57.2392 124.174 55.8784 124.429 54.5079 124.408ZM54.5079 108.13C51.4229 108.13 49.0911 110.651 49.0911 113.985C49.0911 117.319 51.49 119.961 54.5655 119.961C57.6409 119.961 60.035 117.44 60.035 114.106C60.0643 113.338 59.9437 112.572 59.68 111.851C59.4199 111.133 59.0202 110.475 58.5045 109.915C57.99 109.361 57.3699 108.917 56.6813 108.609C55.9969 108.301 55.2572 108.138 54.5079 108.13Z" fill="#091F51"/>
<path d="M77.5105 123.997V115.718C77.5105 113.85 76.5509 112.693 74.9868 112.693C73.4227 112.693 72.3528 113.879 72.3528 115.718V123.997H67.5741V111.256C67.5741 110.25 66.7249 109.321 66.0148 108.701L70.0402 108.754C72.0361 108.754 72.3384 110.061 72.3384 110.864L73.0245 110.99C73.3381 110.37 73.8115 109.847 74.3949 109.476C74.9784 109.105 75.6502 108.899 76.3398 108.88C76.6421 108.856 76.9347 108.842 77.2226 108.842C80.3892 108.842 82.2844 110.743 82.2844 113.947V123.978L77.5105 123.997Z" fill="#091F51"/>
<path d="M101.192 123.997V111.328L95.6605 120.038L90.1622 111.401V123.982H85.3979V104.089H90.7427L95.7229 112.393L100.703 104.089H106.043V123.997H101.192Z" fill="#091F51"/>
<path d="M113.529 128.797C111.938 128.798 110.374 128.393 108.98 127.621L110.42 124.345C111.096 124.745 111.854 124.985 112.636 125.047C112.94 125.066 113.243 125.002 113.514 124.863C113.785 124.722 114.015 124.511 114.181 124.253L114.282 124.098L108.304 108.773H113.245L116.604 119.197L119.771 108.802H124.612L119.142 123.871C117.77 127.544 116.359 128.797 113.529 128.797Z" fill="#091F51"/>
<path d="M145.024 124.147L140.734 111.566L136.483 124.147H132.127L125.65 104.089H130.798L134.531 116.83L138.662 104.036H142.98L147.106 116.83L150.848 104.089H155.852L149.37 124.147H145.024Z" fill="#091F51"/>
<path d="M179.587 128.797C177.997 128.797 176.432 128.392 175.039 127.621L176.449 124.355C177.127 124.758 177.886 124.999 178.671 125.061C178.973 125.081 179.275 125.017 179.544 124.877C179.816 124.737 180.046 124.527 180.211 124.267L180.321 124.113L174.357 108.773H179.313L182.672 119.167L185.839 108.773H190.68L185.205 123.837C183.828 127.543 182.418 128.797 179.587 128.797Z" fill="#091F51"/>
<path d="M162.124 124.587C157.897 124.587 154.702 121.079 154.702 116.472C154.702 111.865 157.897 108.319 162.124 108.319C163.021 108.294 163.914 108.449 164.751 108.775C165.588 109.102 166.352 109.593 166.999 110.22L167.579 110.806V108.788H172.286V124.113H167.642V122.308H167.162L166.999 122.419C166.38 123.11 165.625 123.662 164.782 124.04C163.945 124.412 163.039 124.599 162.124 124.587ZM163.751 112.335C163.221 112.324 162.695 112.424 162.206 112.63C161.711 112.834 161.264 113.139 160.891 113.525C160.516 113.913 160.224 114.374 160.032 114.88C159.836 115.387 159.743 115.928 159.759 116.472C159.752 117.557 160.171 118.601 160.925 119.375C161.291 119.754 161.729 120.054 162.212 120.259C162.695 120.465 163.214 120.57 163.739 120.57C164.263 120.57 164.782 120.465 165.265 120.259C165.748 120.054 166.186 119.754 166.552 119.375C167.306 118.601 167.725 117.557 167.718 116.472C167.735 115.93 167.644 115.39 167.45 114.885C167.26 114.379 166.969 113.918 166.596 113.53C166.228 113.145 165.785 112.841 165.296 112.635C164.807 112.429 164.281 112.327 163.751 112.335Z" fill="#091F51"/>
<path d="M0.5 92.8333L7.51425 92.6914L14.5285 92.5827L28.5219 92.3699C37.8509 92.2596 47.1818 92.1682 56.5146 92.0957C65.8669 92.0106 75.1784 91.9917 84.5073 91.9397L112.5 91.8877L140.493 91.935C149.845 91.987 159.156 92.0059 168.485 92.0957C177.814 92.1856 187.149 92.2565 196.478 92.3699L210.472 92.5827L217.486 92.6867L224.5 92.8333L217.486 92.9751L210.472 93.0838L196.478 93.2966C187.149 93.4069 177.818 93.4983 168.485 93.5708C159.133 93.6559 149.822 93.6748 140.493 93.7268L112.5 93.7741L84.5073 93.7221C75.155 93.6748 65.8436 93.6512 56.5146 93.5661C47.1857 93.481 37.8509 93.4006 28.5219 93.2919L14.5285 93.0791L7.51425 92.9751L0.5 92.8333Z" fill="url(#paint2_linear_1127_34)" fill-opacity="0.95"/>
<path opacity="0.75" d="M58.0833 141.146L57.5554 139.586H55.3556L54.8277 141.146H53.8958L55.9796 135.374H56.9475L59.0312 141.146H58.0833ZM56.4435 136.334L55.5836 138.866H57.3274L56.4675 136.334H56.4435ZM59.5632 141.146V136.938H60.3871V137.654H60.4071C60.547 137.162 60.923 136.87 61.4189 136.87C61.5429 136.87 61.6509 136.89 61.7149 136.902V137.706C61.6469 137.678 61.4949 137.658 61.327 137.658C60.771 137.658 60.4271 138.03 60.4271 138.626V141.146H59.5632ZM65.6785 138.386H64.8546C64.7666 137.938 64.4306 137.582 63.8667 137.582C63.1987 137.582 62.7588 138.138 62.7588 139.042C62.7588 139.966 63.2027 140.502 63.8747 140.502C64.4066 140.502 64.7546 140.21 64.8546 139.722H65.6865C65.5945 140.618 64.8786 141.225 63.8667 141.225C62.6628 141.225 61.8789 140.402 61.8789 139.042C61.8789 137.706 62.6628 136.862 63.8587 136.862C64.9425 136.862 65.6025 137.558 65.6785 138.386ZM66.3304 141.146V135.374H67.1863V137.642H67.2063C67.4383 137.15 67.8982 136.866 68.5381 136.866C69.462 136.866 70.014 137.482 70.014 138.434V141.146H69.1461V138.602C69.1461 137.982 68.8341 137.61 68.2262 137.61C67.5862 137.61 67.1943 138.05 67.1943 138.714V141.146H66.3304ZM70.8779 141.146V136.938H71.7418V141.146H70.8779ZM71.3098 136.322C71.0338 136.322 70.8099 136.102 70.8099 135.83C70.8099 135.554 71.0338 135.334 71.3098 135.334C71.5898 135.334 71.8138 135.554 71.8138 135.83C71.8138 136.102 71.5898 136.322 71.3098 136.322ZM74.3855 137.558C73.7815 137.558 73.3576 138.018 73.3136 138.654H75.4173C75.3973 138.01 74.9894 137.558 74.3855 137.558ZM75.4133 139.91H76.2333C76.1133 140.678 75.3854 141.225 74.4215 141.225C73.1856 141.225 72.4377 140.39 72.4377 139.062C72.4377 137.742 73.1976 136.862 74.3855 136.862C75.5533 136.862 76.2812 137.686 76.2812 138.962V139.258H73.3096V139.31C73.3096 140.042 73.7495 140.526 74.4415 140.526C74.9334 140.526 75.2974 140.278 75.4133 139.91ZM81.3327 141.146H80.3528L78.293 135.374H79.2649L80.8367 140.138H80.8607L82.4365 135.374H83.3924L81.3327 141.146ZM85.1762 141.225C83.9724 141.225 83.1805 140.398 83.1805 139.042C83.1805 137.69 83.9764 136.862 85.1762 136.862C86.3761 136.862 87.172 137.69 87.172 139.042C87.172 140.398 86.3801 141.225 85.1762 141.225ZM85.1762 140.514C85.8562 140.514 86.2921 139.978 86.2921 139.042C86.2921 138.11 85.8522 137.574 85.1762 137.574C84.5003 137.574 84.0604 138.11 84.0604 139.042C84.0604 139.978 84.5003 140.514 85.1762 140.514ZM87.8679 141.146V136.938H88.7318V141.146H87.8679ZM88.2999 136.322C88.0239 136.322 87.7999 136.102 87.7999 135.83C87.7999 135.554 88.0239 135.334 88.2999 135.334C88.5798 135.334 88.8038 135.554 88.8038 135.83C88.8038 136.102 88.5798 136.322 88.2999 136.322ZM93.2273 138.386H92.4034C92.3154 137.938 91.9795 137.582 91.4155 137.582C90.7476 137.582 90.3076 138.138 90.3076 139.042C90.3076 139.966 90.7516 140.502 91.4235 140.502C91.9555 140.502 92.3034 140.21 92.4034 139.722H93.2353C93.1433 140.618 92.4274 141.225 91.4155 141.225C90.2117 141.225 89.4277 140.402 89.4277 139.042C89.4277 137.706 90.2117 136.862 91.4075 136.862C92.4914 136.862 93.1513 137.558 93.2273 138.386ZM95.607 137.558C95.0031 137.558 94.5792 138.018 94.5352 138.654H96.6389C96.6189 138.01 96.211 137.558 95.607 137.558ZM96.6349 139.91H97.4548C97.3348 140.678 96.6069 141.225 95.643 141.225C94.4072 141.225 93.6593 140.39 93.6593 139.062C93.6593 137.742 94.4192 136.862 95.607 136.862C96.7749 136.862 97.5028 137.686 97.5028 138.962V139.258H94.5312V139.31C94.5312 140.042 94.9711 140.526 95.663 140.526C96.155 140.526 96.5189 140.278 96.6349 139.91ZM103.702 141.146L103.174 139.586H100.974L100.446 141.146H99.5146L101.598 135.374H102.566L104.65 141.146H103.702ZM102.062 136.334L101.202 138.866H102.946L102.086 136.334H102.062ZM106.182 141.146H105.286V135.374H106.182V141.146ZM107.79 141.19C107.498 141.19 107.266 140.958 107.266 140.666C107.266 140.374 107.498 140.142 107.79 140.142C108.082 140.142 108.314 140.374 108.314 140.666C108.314 140.958 108.082 141.19 107.79 141.19ZM110.629 135.374H112.665C114.381 135.374 115.397 136.43 115.397 138.25C115.397 140.074 114.385 141.146 112.665 141.146H110.629V135.374ZM111.525 136.146V140.37H112.581C113.805 140.37 114.481 139.622 114.481 138.258C114.481 136.898 113.801 136.146 112.581 136.146H111.525ZM116.149 141.146V136.938H116.973V137.654H116.993C117.133 137.162 117.509 136.87 118.004 136.87C118.128 136.87 118.236 136.89 118.3 136.902V137.706C118.232 137.678 118.08 137.658 117.912 137.658C117.357 137.658 117.013 138.03 117.013 138.626V141.146H116.149ZM118.864 141.146V136.938H119.728V141.146H118.864ZM119.296 136.322C119.02 136.322 118.796 136.102 118.796 135.83C118.796 135.554 119.02 135.334 119.296 135.334C119.576 135.334 119.8 135.554 119.8 135.83C119.8 136.102 119.576 136.322 119.296 136.322ZM124.204 136.938L122.696 141.146H121.768L120.252 136.938H121.172L122.228 140.302H122.244L123.3 136.938H124.204ZM126.34 137.558C125.736 137.558 125.312 138.018 125.268 138.654H127.371C127.351 138.01 126.943 137.558 126.34 137.558ZM127.367 139.91H128.187C128.067 140.678 127.339 141.225 126.376 141.225C125.14 141.225 124.392 140.39 124.392 139.062C124.392 137.742 125.152 136.862 126.34 136.862C127.507 136.862 128.235 137.686 128.235 138.962V139.258H125.264V139.31C125.264 140.042 125.704 140.526 126.396 140.526C126.887 140.526 127.251 140.278 127.367 139.91ZM130.419 139.538H131.303C131.367 140.11 131.923 140.486 132.683 140.486C133.411 140.486 133.935 140.11 133.935 139.594C133.935 139.146 133.619 138.878 132.871 138.694L132.123 138.514C131.063 138.258 130.571 137.762 130.571 136.958C130.571 135.962 131.439 135.278 132.671 135.278C133.891 135.278 134.727 135.962 134.755 136.958H133.883C133.831 136.382 133.355 136.034 132.659 136.034C131.963 136.034 131.487 136.386 131.487 136.898C131.487 137.306 131.791 137.546 132.535 137.73L133.171 137.886C134.355 138.166 134.847 138.642 134.847 139.486C134.847 140.566 133.987 141.241 132.619 141.241C131.339 141.241 130.475 140.582 130.419 139.538ZM137.018 140.534C137.622 140.534 138.094 140.118 138.094 139.57V139.238L137.058 139.302C136.542 139.338 136.25 139.566 136.25 139.926C136.25 140.294 136.554 140.534 137.018 140.534ZM136.778 141.217C135.954 141.217 135.378 140.706 135.378 139.95C135.378 139.214 135.942 138.762 136.942 138.706L138.094 138.638V138.314C138.094 137.846 137.778 137.566 137.25 137.566C136.75 137.566 136.438 137.806 136.362 138.182H135.546C135.594 137.422 136.242 136.862 137.282 136.862C138.302 136.862 138.954 137.402 138.954 138.246V141.146H138.126V140.454H138.106C137.862 140.922 137.33 141.217 136.778 141.217ZM140.046 141.146V137.622H139.466V136.946H140.046V136.534C140.046 135.718 140.43 135.334 141.286 135.334C141.462 135.334 141.658 135.354 141.77 135.374V136.014C141.686 135.998 141.57 135.99 141.454 135.99C141.078 135.99 140.902 136.178 140.902 136.55V136.946H141.754V137.622H140.914V141.146H140.046ZM144.017 137.558C143.414 137.558 142.99 138.018 142.946 138.654H145.049C145.029 138.01 144.621 137.558 144.017 137.558ZM145.045 139.91H145.865C145.745 140.678 145.017 141.225 144.053 141.225C142.818 141.225 142.07 140.39 142.07 139.062C142.07 137.742 142.83 136.862 144.017 136.862C145.185 136.862 145.913 137.686 145.913 138.962V139.258H142.942V139.31C142.942 140.042 143.382 140.526 144.073 140.526C144.565 140.526 144.929 140.278 145.045 139.91ZM147.233 141.19C146.941 141.19 146.709 140.958 146.709 140.666C146.709 140.374 146.941 140.142 147.233 140.142C147.525 140.142 147.757 140.374 147.757 140.666C147.757 140.958 147.525 141.19 147.233 141.19ZM155.044 138.746C155.044 140.31 154.12 141.241 152.557 141.241C150.905 141.241 149.865 140.086 149.865 138.234C149.865 136.414 150.901 135.278 152.545 135.278C153.828 135.278 154.8 136.038 155 137.19H154.08C153.864 136.474 153.3 136.062 152.549 136.062C151.445 136.062 150.781 136.87 150.781 138.226C150.781 139.606 151.465 140.458 152.565 140.458C153.5 140.458 154.148 139.858 154.16 138.982V138.882H152.669V138.158H155.044V138.746ZM157.576 137.558C156.972 137.558 156.548 138.018 156.504 138.654H158.608C158.588 138.01 158.18 137.558 157.576 137.558ZM158.604 139.91H159.424C159.304 140.678 158.576 141.225 157.612 141.225C156.376 141.225 155.628 140.39 155.628 139.062C155.628 137.742 156.388 136.862 157.576 136.862C158.744 136.862 159.472 137.686 159.472 138.962V139.258H156.5V139.31C156.5 140.042 156.94 140.526 157.632 140.526C158.124 140.526 158.488 140.278 158.604 139.91ZM160.396 135.942H161.264V136.938H162.063V137.622H161.264V139.942C161.264 140.306 161.424 140.47 161.775 140.47C161.863 140.47 162.003 140.462 162.059 140.45V141.134C161.963 141.158 161.771 141.174 161.579 141.174C160.728 141.174 160.396 140.85 160.396 140.038V137.622H159.784V136.938H160.396V135.942ZM164.543 135.374H166.707C167.827 135.374 168.607 136.146 168.607 137.27C168.607 138.398 167.811 139.174 166.679 139.174H165.439V141.146H164.543V135.374ZM165.439 136.13V138.422H166.467C167.247 138.422 167.691 138.002 167.691 137.274C167.691 136.546 167.247 136.13 166.471 136.13H165.439ZM170.422 140.534C171.026 140.534 171.498 140.118 171.498 139.57V139.238L170.462 139.302C169.947 139.338 169.655 139.566 169.655 139.926C169.655 140.294 169.959 140.534 170.422 140.534ZM170.182 141.217C169.359 141.217 168.783 140.706 168.783 139.95C168.783 139.214 169.347 138.762 170.346 138.706L171.498 138.638V138.314C171.498 137.846 171.182 137.566 170.654 137.566C170.155 137.566 169.843 137.806 169.767 138.182H168.951C168.999 137.422 169.647 136.862 170.686 136.862C171.706 136.862 172.358 137.402 172.358 138.246V141.146H171.53V140.454H171.51C171.266 140.922 170.734 141.217 170.182 141.217ZM173.226 141.146V136.938H174.09V141.146H173.226ZM173.658 136.322C173.382 136.322 173.158 136.102 173.158 135.83C173.158 135.554 173.382 135.334 173.658 135.334C173.938 135.334 174.162 135.554 174.162 135.83C174.162 136.102 173.938 136.322 173.658 136.322ZM176.554 141.217C175.49 141.217 174.786 140.37 174.786 139.042C174.786 137.714 175.49 136.87 176.546 136.87C177.15 136.87 177.63 137.174 177.866 137.638H177.882V135.374H178.75V141.146H177.91V140.43H177.894C177.646 140.91 177.166 141.217 176.554 141.217ZM176.782 137.598C176.098 137.598 175.67 138.158 175.67 139.042C175.67 139.93 176.098 140.486 176.782 140.486C177.446 140.486 177.89 139.922 177.89 139.042C177.89 138.17 177.446 137.598 176.782 137.598ZM180.285 141.19C179.993 141.19 179.761 140.958 179.761 140.666C179.761 140.374 179.993 140.142 180.285 140.142C180.577 140.142 180.809 140.374 180.809 140.666C180.809 140.958 180.577 141.19 180.285 141.19Z" fill="#091F51"/>
<defs>
<filter id="filter0_d_1127_34" x="75.6521" y="0.724931" width="79.7872" height="80.5258" filterUnits="userSpaceOnUse" color-interpolation-filters="sRGB">
<feFlood flood-opacity="0" result="BackgroundImageFix"/>
<feColorMatrix in="SourceAlpha" type="matrix" values="0 0 0 0 0 0 0 0 0 0 0 0 0 0 0 0 0 0 127 0" result="hardAlpha"/>
<feOffset dx="0.939258" dy="0.469629"/>
<feGaussianBlur stdDeviation="0.540073"/>
<feComposite in2="hardAlpha" operator="out"/>
<feColorMatrix type="matrix" values="0 0 0 0 0.78125 0 0 0 0 0.860969 0 0 0 0 0.9375 0 0 0 0.95 0"/>
<feBlend mode="normal" in2="BackgroundImageFix" result="effect1_dropShadow_1127_34"/>
<feBlend mode="normal" in="SourceGraphic" in2="effect1_dropShadow_1127_34" result="shape"/>
</filter>
<linearGradient id="paint0_linear_1127_34" x1="74.1562" y1="-3.61778" x2="116.648" y2="113.829" gradientUnits="userSpaceOnUse">
<stop offset="0.164203" stop-color="#8594CC"/>
<stop offset="0.431264" stop-color="#DDE4FE"/>
<stop offset="0.550769" stop-color="#DDE4FE"/>
<stop offset="0.700224" stop-color="#8594CC"/>
</linearGradient>
<linearGradient id="paint1_linear_1127_34" x1="128.401" y1="3.69358" x2="143.137" y2="75.8035" gradientUnits="userSpaceOnUse">
<stop stop-color="#0A84FF"/>
<stop offset="0.165732" stop-color="#01CFFC"/>
<stop offset="0.354699" stop-color="#0A84FF"/>
<stop offset="0.540421" stop-color="#0A84FF"/>
<stop offset="0.698073" stop-color="#01CFFC"/>
<stop offset="0.885485" stop-color="#0A84FF"/>
<stop offset="1" stop-color="#0A84FF"/>
</linearGradient>
<linearGradient id="paint2_linear_1127_34" x1="-22.3314" y1="92.9751" x2="236.991" y2="92.556" gradientUnits="userSpaceOnUse">
<stop stop-color="#BAC5EA" stop-opacity="0.5"/>
<stop offset="0.25" stop-color="#BAC5EA" stop-opacity="0.5"/>
<stop offset="0.5" stop-color="#8594CC"/>
<stop offset="0.74" stop-color="#B3BEE6"/>
<stop offset="1" stop-color="#BAC5EA"/>
</linearGradient>
</defs>
</svg>
