<svg width="260" height="72" viewBox="0 0 260 72" fill="none" xmlns="http://www.w3.org/2000/svg">
<path d="M29.3964 68.3821L28.3881 65.51H24.3964L23.388 68.3821H22.0737L25.7733 58.3472H27.0112L30.7108 68.3821H29.3964ZM26.3714 59.8702L24.765 64.446H28.0195L26.4131 59.8702H26.3714ZM31.6704 68.3821V61.1497H32.8109V62.332H32.8387C33.0752 61.5322 33.7428 61.0246 34.5912 61.0246C34.7998 61.0246 34.9806 61.0593 35.078 61.0733V62.2485C34.9806 62.2137 34.7233 62.179 34.4313 62.179C33.4924 62.179 32.8805 62.8535 32.8805 63.8758V68.3821H31.6704ZM41.7262 63.5211H40.544C40.3701 62.7353 39.7581 62.0886 38.6942 62.0886C37.4424 62.0886 36.594 63.1247 36.594 64.7659C36.594 66.4488 37.4563 67.4433 38.7081 67.4433C39.6956 67.4433 40.3423 66.9217 40.5509 66.0524H41.7401C41.5523 67.4919 40.3423 68.5073 38.7011 68.5073C36.6983 68.5073 35.3631 67.0956 35.3631 64.7659C35.3631 62.4849 36.6914 61.0246 38.6872 61.0246C40.4953 61.0246 41.5732 62.2207 41.7262 63.5211ZM42.9153 68.3821V58.3472H44.1254V62.3041H44.1532C44.5565 61.4975 45.3493 61.0246 46.4481 61.0246C48.0336 61.0246 48.9933 62.0955 48.9933 63.7089V68.3821H47.7833V63.9314C47.7833 62.784 47.2061 62.0955 46.0725 62.0955C44.8695 62.0955 44.1254 62.9161 44.1254 64.1679V68.3821H42.9153ZM50.5927 68.3821V61.1497H51.8028V68.3821H50.5927ZM51.1977 59.9328C50.7875 59.9328 50.4467 59.592 50.4467 59.1817C50.4467 58.7645 50.7875 58.4307 51.1977 58.4307C51.615 58.4307 51.9558 58.7645 51.9558 59.1817C51.9558 59.592 51.615 59.9328 51.1977 59.9328ZM56.3369 62.0747C55.2034 62.0747 54.4106 62.9439 54.3341 64.147H58.2632C58.2354 62.937 57.4774 62.0747 56.3369 62.0747ZM58.2354 66.3097H59.4245C59.2159 67.5754 57.992 68.5073 56.4134 68.5073C54.341 68.5073 53.0823 67.0677 53.0823 64.7937C53.0823 62.5475 54.3619 61.0246 56.3577 61.0246C58.3119 61.0246 59.5149 62.4432 59.5149 64.6338V65.0928H54.3271V65.1623C54.3271 66.5462 55.1408 67.4572 56.4412 67.4572C57.3591 67.4572 58.0337 66.9912 58.2354 66.3097ZM67.9851 68.3821H66.7473L63.0476 58.3472H64.362L67.3453 66.8591H67.387L70.3704 58.3472H71.6847L67.9851 68.3821ZM74.6681 68.5073C72.6653 68.5073 71.3162 67.0677 71.3162 64.7659C71.3162 62.4571 72.6653 61.0246 74.6681 61.0246C76.6639 61.0246 78.013 62.4571 78.013 64.7659C78.013 67.0677 76.6639 68.5073 74.6681 68.5073ZM74.6681 67.4433C75.9476 67.4433 76.7821 66.4697 76.7821 64.7659C76.7821 63.0621 75.9476 62.0886 74.6681 62.0886C73.3885 62.0886 72.547 63.0621 72.547 64.7659C72.547 66.4697 73.3885 67.4433 74.6681 67.4433ZM79.2995 68.3821V61.1497H80.5096V68.3821H79.2995ZM79.9046 59.9328C79.4943 59.9328 79.1535 59.592 79.1535 59.1817C79.1535 58.7645 79.4943 58.4307 79.9046 58.4307C80.3218 58.4307 80.6626 58.7645 80.6626 59.1817C80.6626 59.592 80.3218 59.9328 79.9046 59.9328ZM88.1522 63.5211H86.97C86.7961 62.7353 86.1842 62.0886 85.1202 62.0886C83.8684 62.0886 83.02 63.1247 83.02 64.7659C83.02 66.4488 83.8823 67.4433 85.1341 67.4433C86.1216 67.4433 86.7683 66.9217 86.9769 66.0524H88.1661C87.9783 67.4919 86.7683 68.5073 85.1271 68.5073C83.1243 68.5073 81.7891 67.0956 81.7891 64.7659C81.7891 62.4849 83.1174 61.0246 85.1132 61.0246C86.9213 61.0246 87.9992 62.2207 88.1522 63.5211ZM92.1787 62.0747C91.0451 62.0747 90.2524 62.9439 90.1759 64.147H94.105C94.0771 62.937 93.3191 62.0747 92.1787 62.0747ZM94.0771 66.3097H95.2663C95.0577 67.5754 93.8338 68.5073 92.2552 68.5073C90.1828 68.5073 88.9241 67.0677 88.9241 64.7937C88.9241 62.5475 90.2037 61.0246 92.1995 61.0246C94.1536 61.0246 95.3567 62.4432 95.3567 64.6338V65.0928H90.1689V65.1623C90.1689 66.5462 90.9825 67.4572 92.283 67.4572C93.2009 67.4572 93.8755 66.9912 94.0771 66.3097ZM106.212 68.3821L105.204 65.51H101.212L100.204 68.3821H98.8894L102.589 58.3472H103.827L107.527 68.3821H106.212ZM103.187 59.8702L101.581 64.446H104.835L103.229 59.8702H103.187ZM109.926 68.3821H108.674V58.3472H109.926V68.3821ZM112.707 68.4516C112.262 68.4516 111.915 68.1039 111.915 67.6588C111.915 67.2138 112.262 66.8661 112.707 66.8661C113.152 66.8661 113.5 67.2138 113.5 67.6588C113.5 68.1039 113.152 68.4516 112.707 68.4516ZM117.714 58.3472H121.087C124.064 58.3472 125.823 60.204 125.823 63.3612C125.823 66.5253 124.07 68.3821 121.087 68.3821H117.714V58.3472ZM118.966 59.4738V67.2555H121.004C123.278 67.2555 124.543 65.8647 124.543 63.3751C124.543 60.8646 123.285 59.4738 121.004 59.4738H118.966ZM127.193 68.3821V61.1497H128.333V62.332H128.361C128.598 61.5322 129.265 61.0246 130.114 61.0246C130.322 61.0246 130.503 61.0593 130.6 61.0733V62.2485C130.503 62.2137 130.246 62.179 129.954 62.179C129.015 62.179 128.403 62.8535 128.403 63.8758V68.3821H127.193ZM131.651 68.3821V61.1497H132.861V68.3821H131.651ZM132.256 59.9328C131.845 59.9328 131.504 59.592 131.504 59.1817C131.504 58.7645 131.845 58.4307 132.256 58.4307C132.673 58.4307 133.014 58.7645 133.014 59.1817C133.014 59.592 132.673 59.9328 132.256 59.9328ZM140.427 61.1497L137.77 68.3821H136.532L133.869 61.1497H135.142L137.137 67.0956H137.165L139.168 61.1497H140.427ZM144.071 62.0747C142.937 62.0747 142.144 62.9439 142.068 64.147H145.997C145.969 62.937 145.211 62.0747 144.071 62.0747ZM145.969 66.3097H147.158C146.95 67.5754 145.726 68.5073 144.147 68.5073C142.075 68.5073 140.816 67.0677 140.816 64.7937C140.816 62.5475 142.096 61.0246 144.092 61.0246C146.046 61.0246 147.249 62.4432 147.249 64.6338V65.0928H142.061V65.1623C142.061 66.5462 142.875 67.4572 144.175 67.4572C145.093 67.4572 145.767 66.9912 145.969 66.3097ZM151.101 65.6213H152.36C152.478 66.7061 153.507 67.4224 154.94 67.4224C156.296 67.4224 157.284 66.7061 157.284 65.7186C157.284 64.8702 156.692 64.3487 155.343 64.001L154.057 63.6672C152.207 63.1943 151.386 62.3806 151.386 61.0176C151.386 59.3486 152.847 58.1803 154.933 58.1803C156.929 58.1803 158.375 59.3625 158.431 61.0454H157.179C157.068 59.9675 156.199 59.3069 154.891 59.3069C153.591 59.3069 152.687 59.9814 152.687 60.962C152.687 61.72 153.243 62.172 154.606 62.5267L155.656 62.8048C157.736 63.3264 158.577 64.1261 158.577 65.5656C158.577 67.4015 157.131 68.549 154.822 68.549C152.694 68.549 151.22 67.3946 151.101 65.6213ZM162.235 67.478C163.375 67.478 164.252 66.6783 164.252 65.6352V65.0441L162.318 65.1623C161.345 65.2249 160.788 65.656 160.788 66.3376C160.788 67.026 161.366 67.478 162.235 67.478ZM161.964 68.5073C160.524 68.5073 159.558 67.638 159.558 66.3376C159.558 65.0997 160.51 64.3208 162.179 64.2235L164.252 64.1053V63.5003C164.252 62.6171 163.668 62.0886 162.666 62.0886C161.734 62.0886 161.15 62.5267 160.997 63.236H159.829C159.912 61.9842 160.983 61.0246 162.694 61.0246C164.391 61.0246 165.462 61.9425 165.462 63.382V68.3821H164.314V67.1373H164.286C163.855 67.9648 162.937 68.5073 161.964 68.5073ZM167.388 68.3821V62.1442H166.38V61.1497H167.388V60.3431C167.388 58.9522 168.035 58.2916 169.37 58.2916C169.641 58.2916 169.933 58.3194 170.107 58.3472V59.3278C169.961 59.3069 169.759 59.286 169.558 59.286C168.904 59.286 168.591 59.6337 168.591 60.35V61.1497H170.072V62.1442H168.598V68.3821H167.388ZM173.876 62.0747C172.743 62.0747 171.95 62.9439 171.873 64.147H175.803C175.775 62.937 175.017 62.0747 173.876 62.0747ZM175.775 66.3097H176.964C176.755 67.5754 175.531 68.5073 173.953 68.5073C171.88 68.5073 170.622 67.0677 170.622 64.7937C170.622 62.5475 171.901 61.0246 173.897 61.0246C175.851 61.0246 177.054 62.4432 177.054 64.6338V65.0928H171.866V65.1623C171.866 66.5462 172.68 67.4572 173.981 67.4572C174.898 67.4572 175.573 66.9912 175.775 66.3097ZM179.3 68.4516C178.855 68.4516 178.508 68.1039 178.508 67.6588C178.508 67.2138 178.855 66.8661 179.3 66.8661C179.746 66.8661 180.093 67.2138 180.093 67.6588C180.093 68.1039 179.746 68.4516 179.3 68.4516ZM192.771 64.2304C192.771 66.9426 191.192 68.549 188.515 68.549C185.712 68.549 183.918 66.5045 183.918 63.3125C183.918 60.1762 185.705 58.1803 188.515 58.1803C190.684 58.1803 192.333 59.4668 192.708 61.4627H191.394C190.977 60.1066 189.926 59.3347 188.515 59.3347C186.449 59.3347 185.205 60.8229 185.205 63.3055C185.205 65.8299 186.47 67.3946 188.515 67.3946C190.295 67.3946 191.519 66.2402 191.519 64.5573V64.3765H188.689V63.2777H192.771V64.2304ZM197.089 62.0747C195.956 62.0747 195.163 62.9439 195.086 64.147H199.016C198.988 62.937 198.23 62.0747 197.089 62.0747ZM198.988 66.3097H200.177C199.968 67.5754 198.744 68.5073 197.166 68.5073C195.093 68.5073 193.835 67.0677 193.835 64.7937C193.835 62.5475 195.114 61.0246 197.11 61.0246C199.064 61.0246 200.267 62.4432 200.267 64.6338V65.0928H195.079V65.1623C195.079 66.5462 195.893 67.4572 197.194 67.4572C198.111 67.4572 198.786 66.9912 198.988 66.3097ZM201.881 59.4042H203.091V61.1497H204.495V62.1442H203.091V66.4419C203.091 67.1025 203.369 67.4015 203.988 67.4015C204.127 67.4015 204.405 67.3807 204.488 67.3668V68.3821C204.342 68.4169 204.009 68.4377 203.724 68.4377C202.395 68.4377 201.881 67.8953 201.881 66.5045V62.1442H200.803V61.1497H201.881V59.4042ZM208.897 58.3472H212.479C214.363 58.3472 215.692 59.6685 215.692 61.567C215.692 63.4724 214.349 64.8007 212.465 64.8007H210.149V68.3821H208.897V58.3472ZM210.149 59.4599V63.688H212.152C213.585 63.688 214.405 62.9022 214.405 61.567C214.405 60.2387 213.591 59.4599 212.152 59.4599H210.149ZM218.703 67.478C219.843 67.478 220.719 66.6783 220.719 65.6352V65.0441L218.786 65.1623C217.813 65.2249 217.256 65.656 217.256 66.3376C217.256 67.026 217.834 67.478 218.703 67.478ZM218.432 68.5073C216.992 68.5073 216.025 67.638 216.025 66.3376C216.025 65.0997 216.978 64.3208 218.647 64.2235L220.719 64.1053V63.5003C220.719 62.6171 220.135 62.0886 219.134 62.0886C218.202 62.0886 217.618 62.5267 217.465 63.236H216.297C216.38 61.9842 217.451 61.0246 219.162 61.0246C220.859 61.0246 221.93 61.9425 221.93 63.382V68.3821H220.782V67.1373H220.754C220.323 67.9648 219.405 68.5073 218.432 68.5073ZM223.529 68.3821V61.1497H224.739V68.3821H223.529ZM224.134 59.9328C223.724 59.9328 223.383 59.592 223.383 59.1817C223.383 58.7645 223.724 58.4307 224.134 58.4307C224.551 58.4307 224.892 58.7645 224.892 59.1817C224.892 59.592 224.551 59.9328 224.134 59.9328ZM229.113 68.5073C227.27 68.5073 226.019 67.033 226.019 64.7659C226.019 62.4989 227.263 61.0246 229.085 61.0246C230.122 61.0246 230.956 61.5322 231.387 62.325H231.415V58.3472H232.625V68.3821H231.471V67.1581H231.45C230.984 67.9926 230.156 68.5073 229.113 68.5073ZM229.343 62.0886C228.063 62.0886 227.256 63.1317 227.256 64.7659C227.256 66.4071 228.063 67.4433 229.343 67.4433C230.587 67.4433 231.422 66.3862 231.422 64.7659C231.422 63.1525 230.587 62.0886 229.343 62.0886ZM235.282 68.4516C234.836 68.4516 234.489 68.1039 234.489 67.6588C234.489 67.2138 234.836 66.8661 235.282 66.8661C235.727 66.8661 236.074 67.2138 236.074 67.6588C236.074 68.1039 235.727 68.4516 235.282 68.4516Z" fill="white"/>
<path d="M61.2003 37.395V23.1465C61.2003 19.9321 59.5147 17.9418 56.7671 17.9418C54.0195 17.9418 52.14 19.982 52.14 23.1465V37.395H43.7456V15.4685C43.7456 13.7364 42.2538 12.1375 41.0064 11.0715L48.0777 11.1631C51.5838 11.1631 52.1147 13.4116 52.1147 14.794L53.32 15.0105C53.8709 13.944 54.7026 13.044 55.7274 12.405C56.7523 11.7661 57.9325 11.4119 59.1439 11.3796C59.6748 11.338 60.189 11.313 60.6946 11.313C66.2572 11.313 69.5864 14.5858 69.5864 20.0986V37.3617L61.2003 37.395Z" fill="white"/>
<path d="M102.802 37.3953V15.5938L93.0841 30.5834L83.4254 15.7187V37.3704H75.0562V3.13574H84.4452L93.1937 17.4259L101.942 3.13574H111.323V37.3953H102.802Z" fill="white"/>
<path d="M124.478 45.6551C121.684 45.6564 118.936 44.9603 116.488 43.6315L119.016 37.9937C120.205 38.6825 121.536 39.0954 122.91 39.2012C123.444 39.2341 123.976 39.1248 124.452 38.8847C124.929 38.6415 125.332 38.2798 125.624 37.8355L125.801 37.569L115.299 11.1956H123.981L129.88 29.1332L135.443 11.2455H143.947L134.339 37.1776C131.928 43.4982 129.45 45.6551 124.478 45.6551Z" fill="white"/>
<path d="M179.799 37.6529L172.264 16.0012L164.797 37.6529H157.144L145.766 3.13507H154.809L161.366 25.0616L168.623 3.04346H176.208L183.457 25.0616L190.031 3.13507H198.821L187.435 37.6529H179.799Z" fill="white"/>
<path d="M240.514 45.6548C237.721 45.6551 234.973 44.9591 232.524 43.6312L235.002 38.0101C236.192 38.7041 237.527 39.12 238.905 39.2259C239.435 39.2598 239.966 39.1505 240.438 38.9095C240.916 38.6685 241.32 38.3064 241.61 37.8602L241.804 37.5937L231.328 11.1953H240.034L245.934 29.0829L251.496 11.1953H260L250.384 37.119C247.965 43.498 245.487 45.6548 240.514 45.6548Z" fill="white"/>
<path d="M209.847 38.4094C202.422 38.4094 196.809 32.372 196.809 24.4441C196.809 16.5163 202.422 10.4122 209.847 10.4122C211.423 10.3693 212.991 10.6366 214.461 11.1984C215.931 11.7603 217.274 12.6055 218.41 13.6849L219.43 14.6925V11.2199H227.698V37.5934H219.539V34.4872H218.696L218.41 34.6787C217.323 35.8669 215.997 36.8172 214.516 37.4685C213.046 38.1089 211.454 38.4298 209.847 38.4094ZM212.704 17.3241C211.773 17.3046 210.849 17.4776 209.99 17.832C209.121 18.1832 208.335 18.7077 207.681 19.3726C207.022 20.0397 206.508 20.8333 206.172 21.7043C205.827 22.5764 205.664 23.5082 205.692 24.4441C205.68 26.3115 206.416 28.1078 207.74 29.4407C208.384 30.0916 209.152 30.6088 210.001 30.9619C210.85 31.315 211.762 31.4969 212.683 31.4969C213.604 31.4969 214.516 31.315 215.365 30.9619C216.214 30.6088 216.982 30.0916 217.626 29.4407C218.95 28.1078 219.686 26.3115 219.674 24.4441C219.704 23.5116 219.544 22.5826 219.202 21.7127C218.869 20.842 218.359 20.0483 217.702 19.381C217.055 18.7187 216.278 18.1945 215.419 17.8407C214.559 17.4869 213.635 17.3111 212.704 17.3241Z" fill="white"/>
<g clip-path="url(#clip0_1127_82)">
<path d="M19.0791 38.1494L18.5936 38.1315C15.1463 38.0064 11.7959 36.9709 8.89104 35.1327C5.98617 33.2944 3.63297 30.7207 2.07628 27.6792C0.519595 24.6377 -0.183693 21.2396 0.0396026 17.8385C0.262898 14.4374 1.40462 11.1575 3.34596 8.34021L3.61992 7.94214L8.55944 17.5933C8.25614 19.7565 8.62803 21.9597 9.62547 23.9086C10.6229 25.8575 12.1984 27.4594 14.1416 28.5003L19.0791 38.1494Z" fill="url(#paint0_linear_1127_82)"/>
<path d="M38.6122 19.0735C38.6207 23.5102 37.0598 27.8104 34.1995 31.2307C31.3392 34.6509 27.3591 36.9762 22.9475 37.8045L18.981 29.7915H19.3073C21.1621 29.792 22.986 29.3226 24.6049 28.4282C26.2237 27.5339 27.5835 26.2443 28.5542 24.6828C29.5249 23.1213 30.0741 21.3399 30.1494 19.5089C30.2248 17.6779 29.8237 15.8584 28.9845 14.2241C28.1453 12.5899 26.896 11.1956 25.356 10.1743C23.816 9.15303 22.0366 8.53895 20.188 8.3907C18.3393 8.24246 16.483 8.56501 14.7964 9.32754C13.1099 10.0901 11.6494 11.2671 10.5544 12.7462L6.58789 4.72521C10.098 1.66271 14.6246 -0.018848 19.3073 0.000159393C24.4255 0.00595394 29.3324 2.01732 32.9514 5.59302C36.5705 9.16871 38.6063 14.0167 38.6122 19.0735Z" fill="url(#paint1_linear_1127_82)"/>
</g>
<defs>
<linearGradient id="paint0_linear_1127_82" x1="-0.835204" y1="-2.95925" x2="19.6064" y2="55.4143" gradientUnits="userSpaceOnUse">
<stop offset="0.164203" stop-color="#8594CC"/>
<stop offset="0.431264" stop-color="#DDE4FE"/>
<stop offset="0.550769" stop-color="#DDE4FE"/>
<stop offset="0.700224" stop-color="#8594CC"/>
</linearGradient>
<linearGradient id="paint1_linear_1127_82" x1="26.6601" y1="1.14087" x2="33.8725" y2="35.9922" gradientUnits="userSpaceOnUse">
<stop stop-color="#0A63FD"/>
<stop offset="0.165732" stop-color="#01CFFC"/>
<stop offset="0.354699" stop-color="#0087FF"/>
<stop offset="0.540421" stop-color="#0069FF"/>
<stop offset="0.698073" stop-color="#01CFFC"/>
<stop offset="0.885485" stop-color="#0A84FF"/>
<stop offset="1" stop-color="#0467F3"/>
</linearGradient>
<clipPath id="clip0_1127_82">
<rect width="38.6096" height="38.1487" fill="white"/>
</clipPath>
</defs>
</svg>
