<svg width="178" height="178" viewBox="0 0 178 178" fill="none" xmlns="http://www.w3.org/2000/svg">
<path fill-rule="evenodd" clip-rule="evenodd" d="M178 122.571C178 124.687 178 126.803 177.988 128.922C177.978 130.704 177.957 132.486 177.907 134.268C177.801 138.147 177.569 142.067 176.871 145.903C176.163 149.801 175.009 153.429 173.182 156.971C171.392 160.449 169.053 163.632 166.261 166.392C163.469 169.153 160.246 171.468 156.728 173.238C153.148 175.041 149.481 176.185 145.538 176.884C141.654 177.574 137.693 177.804 133.765 177.908C126.214 178 124.074 178 121.933 178H80.658H56.0697C47.8426 177.976 46.0402 177.957 44.2378 177.908C40.3104 177.804 36.3488 177.574 32.4648 176.884C28.5219 176.185 24.8551 175.041 21.2751 173.238C17.7541 171.468 14.5339 169.153 11.7419 166.392C8.94993 163.632 6.61085 160.449 4.81776 156.971C2.99365 153.429 1.83962 149.801 1.12921 145.903C0.43121 142.067 0.201645 138.147 0.0961691 134.268C0.0465334 132.486 0.0248178 130.704 0.0155111 128.922C0 126.803 0 124.687 0 122.571V98.2636V79.7369V55.4295C0 53.3134 0 51.1942 0.0155111 49.0812C0.0248178 47.2963 0.0465334 45.5145 0.0961691 43.7327C0.201645 39.8502 0.43121 35.9339 1.12921 32.0942C1.83962 28.1963 2.99365 24.5714 4.81776 21.0292C6.61085 17.5484 8.94993 14.3651 11.7419 11.6081C14.5339 8.84488 17.7541 6.53251 21.2751 4.76297C24.8551 2.9597 28.5219 1.81579 32.4648 1.11656C36.3488 0.426528 40.3104 0.196519 44.2378 0.0922479C51.7886 0.000244141 53.9291 0.000244141 56.0697 0.000244141H80.658H120.178L97.342 0.00944452L121.933 0.000244141C130.157 0.0247785 131.96 0.0431792 133.765 0.0922479C137.693 0.196519 141.654 0.426528 145.538 1.11656C149.481 1.81579 153.148 2.9597 156.728 4.76297C160.246 6.53251 163.469 8.84488 166.261 11.6081C169.053 14.3651 171.392 17.5484 173.182 21.0292C175.009 24.5714 176.163 28.1963 176.871 32.0942C177.569 35.9339 177.801 39.8502 177.907 43.7327C177.957 45.5145 177.978 47.2963 177.988 49.0812C178 51.1942 178 53.3134 178 55.4295V79.7369V98.2636V122.571Z" fill="#02154F"/>
<path opacity="0.35" fill-rule="evenodd" clip-rule="evenodd" d="M1.07155e-05 55.4294C1.09005e-05 53.3134 1.10855e-05 51.1973 0.0124167 49.0781C0.0217247 47.2963 0.0434381 45.5145 0.0930751 43.7327C0.198559 39.8532 0.431226 35.9338 1.12922 32.0973C1.83653 28.1994 2.99057 24.5714 4.81778 21.0292C6.60777 17.5515 8.94684 14.3681 11.7388 11.608C14.5309 8.84793 17.7541 6.5325 21.272 4.76296C24.852 2.95969 28.5188 1.81577 32.4617 1.11655C36.3457 0.426517 40.3073 0.196506 44.2347 0.0922429C51.7855 0.000233107 53.9261 0.000233294 56.0666 0.000233481L97.3421 0.000237089L121.93 0.000239239C130.157 0.0247761 131.96 0.0431783 133.762 0.0922508C137.69 0.196514 141.651 0.426526 145.535 1.11656C149.478 1.81578 153.145 2.9597 156.725 4.76297C160.246 6.53251 163.466 8.84794 166.258 11.6081C169.05 14.3682 171.389 17.5515 173.182 21.0292C175.006 24.5714 176.16 28.1994 176.871 32.0973C177.569 35.9339 177.798 39.8532 177.904 43.7327C177.953 45.5145 177.975 47.2963 177.985 49.0781C178 51.1973 178 53.3134 178 55.4295L178 79.7369L178 98.2636L178 122.571C178 124.687 178 126.806 177.984 128.919C177.975 130.704 177.953 132.486 177.904 134.268C177.798 138.15 177.569 142.067 176.871 145.906C176.16 149.804 175.006 153.429 173.182 156.971C171.389 160.452 169.05 163.635 166.258 166.392C163.466 169.156 160.246 171.468 156.725 173.238C153.145 175.041 149.478 176.185 145.535 176.884C141.651 177.574 137.69 177.804 133.762 177.908C126.211 178 124.071 178 121.93 178L97.342 178L57.8225 178L80.658 177.991L56.0666 178C47.8426 177.976 46.0402 177.957 44.2347 177.908C40.3073 177.804 36.3457 177.574 32.4617 176.884C28.5188 176.185 24.852 175.041 21.272 173.238C17.7541 171.468 14.5308 169.156 11.7388 166.392C8.94682 163.635 6.60776 160.452 4.81777 156.971C2.99056 153.429 1.83652 149.804 1.12921 145.906C0.431217 142.067 0.198551 138.15 0.0930672 134.268C0.0434305 132.486 0.0217174 130.704 0.0124097 128.919C4.47552e-06 126.806 4.66078e-06 124.687 4.84578e-06 122.571L6.9708e-06 98.2636L8.59046e-06 79.7368L1.07155e-05 55.4294Z" fill="url(#paint0_linear_1127_53)"/>
<g opacity="0.36" filter="url(#filter0_f_1127_53)">
<path fill-rule="evenodd" clip-rule="evenodd" d="M66.5487 36.4383C74.432 33.0336 82.9295 31.2812 91.5166 31.2893C107.595 31.3314 123.049 37.5185 134.714 48.5838C146.379 59.6491 153.373 74.7553 154.263 90.8091C155.153 106.863 149.872 122.65 139.502 134.937C129.131 147.224 114.456 155.081 98.4808 156.901L86.9126 133.702C88.4547 133.878 90.0056 133.968 91.5577 133.97C98.5168 133.966 105.353 132.133 111.38 128.654C117.407 125.175 122.413 120.172 125.897 114.148C129.381 108.124 131.22 101.29 131.229 94.3304C131.239 87.3713 129.418 80.532 125.951 74.4984C122.483 68.4647 117.49 63.4488 111.473 59.9535C105.455 56.4582 98.6241 54.6065 91.665 54.5839C84.7059 54.5614 77.8632 56.3688 71.823 59.8251C65.7829 63.2813 60.7575 68.2648 57.2509 74.2759L45.6826 51.0844C51.5639 44.8276 58.6655 39.843 66.5487 36.4383ZM56.0951 112.208C60.2874 120.5 67.2542 127.06 75.7832 130.745L89.1903 157.257C77.9401 156.842 67.0066 153.42 57.5272 147.347C48.0477 141.274 40.3684 132.772 35.2881 122.726C30.2078 112.679 27.912 101.455 28.6395 90.2208C29.367 78.9864 33.0912 68.1521 39.4248 58.8448L52.8388 85.364C50.7506 94.4176 51.9029 103.917 56.0951 112.208Z" fill="#071E55"/>
</g>
<path d="M73.3514 125.99C64.6339 122.223 57.5131 115.519 53.2282 107.044C48.9433 98.5687 47.7656 88.8597 49.8999 79.606L36.1895 52.5007C29.716 62.0137 25.9094 73.0875 25.1659 84.5701C24.4223 96.0528 26.7688 107.525 31.9614 117.793C37.154 128.062 45.0029 136.752 54.6919 142.959C64.3808 149.166 75.5559 152.664 87.0548 153.088L73.3514 125.99Z" fill="url(#paint1_linear_1127_53)"/>
<path d="M89.4308 24.3362C80.654 24.3279 71.9686 26.119 63.9112 29.5989C55.8537 33.0789 48.5952 38.1737 42.5839 44.5687L54.4079 68.2727C57.992 62.1288 63.1284 57.0352 69.302 53.5026C75.4757 49.97 82.4696 48.1226 89.5825 48.1456C96.6954 48.1686 103.677 50.0613 109.828 53.6338C115.978 57.2063 121.082 62.3331 124.626 68.5001C128.17 74.6671 130.031 81.6575 130.021 88.7704C130.012 95.8833 128.132 102.869 124.571 109.026C121.01 115.183 115.893 120.296 109.733 123.852C103.573 127.408 96.5857 129.282 89.4728 129.286C87.8864 129.284 86.3013 129.192 84.725 129.012L96.549 152.723C112.877 150.864 127.877 142.833 138.477 130.274C149.076 117.716 154.474 101.58 153.564 85.1713C152.654 68.7627 145.506 53.3227 133.583 42.0129C121.66 30.703 105.864 24.3792 89.4308 24.3362Z" fill="url(#paint2_linear_1127_53)"/>
<defs>
<filter id="filter0_f_1127_53" x="17.3828" y="20.1643" width="148.102" height="148.218" filterUnits="userSpaceOnUse" color-interpolation-filters="sRGB">
<feFlood flood-opacity="0" result="BackgroundImageFix"/>
<feBlend mode="normal" in="SourceGraphic" in2="BackgroundImageFix" result="shape"/>
<feGaussianBlur stdDeviation="5.5625" result="effect1_foregroundBlur_1127_53"/>
</filter>
<linearGradient id="paint0_linear_1127_53" x1="76.1367" y1="89.0002" x2="74.3984" y2="175.914" gradientUnits="userSpaceOnUse">
<stop stop-color="#072E65" stop-opacity="0"/>
<stop offset="0.469074" stop-color="#456AAD" stop-opacity="0.47"/>
<stop offset="1" stop-color="#8AAEFF"/>
</linearGradient>
<linearGradient id="paint1_linear_1127_53" x1="22.3191" y1="16.2001" x2="91.6726" y2="209.537" gradientUnits="userSpaceOnUse">
<stop offset="0.164203" stop-color="#8594CC"/>
<stop offset="0.431264" stop-color="#DDE4FE"/>
<stop offset="0.550769" stop-color="#DDE4FE"/>
<stop offset="0.700224" stop-color="#8594CC"/>
</linearGradient>
<linearGradient id="paint2_linear_1127_53" x1="112.206" y1="28.2107" x2="136.229" y2="146.77" gradientUnits="userSpaceOnUse">
<stop stop-color="#0A63FD"/>
<stop offset="0.165732" stop-color="#01CFFC"/>
<stop offset="0.354699" stop-color="#0087FF"/>
<stop offset="0.540421" stop-color="#0069FF"/>
<stop offset="0.698073" stop-color="#01CFFC"/>
<stop offset="0.885485" stop-color="#0A84FF"/>
<stop offset="1" stop-color="#0467F3"/>
</linearGradient>
</defs>
</svg>
