<svg width="178" height="178" viewBox="0 0 178 178" fill="none" xmlns="http://www.w3.org/2000/svg">
<path fill-rule="evenodd" clip-rule="evenodd" d="M178 122.571C178 124.687 178 126.803 177.988 128.922C177.978 130.704 177.957 132.486 177.907 134.268C177.801 138.147 177.569 142.067 176.871 145.903C176.163 149.801 175.009 153.429 173.182 156.971C171.392 160.449 169.053 163.632 166.261 166.392C163.469 169.153 160.246 171.468 156.728 173.238C153.148 175.041 149.481 176.185 145.538 176.884C141.654 177.574 137.693 177.804 133.765 177.908C126.214 178 124.074 178 121.933 178H80.658H56.0697C47.8426 177.976 46.0402 177.957 44.2378 177.908C40.3104 177.804 36.3488 177.574 32.4648 176.884C28.5219 176.185 24.8551 175.041 21.2751 173.238C17.7541 171.468 14.5339 169.153 11.7419 166.392C8.94993 163.632 6.61085 160.449 4.81776 156.971C2.99365 153.429 1.83962 149.801 1.12921 145.903C0.43121 142.067 0.201645 138.147 0.0961691 134.268C0.0465334 132.486 0.0248178 130.704 0.0155111 128.922C0 126.803 0 124.687 0 122.571V98.2636V79.7369V55.4295C0 53.3134 0 51.1942 0.0155111 49.0812C0.0248178 47.2963 0.0465334 45.5145 0.0961691 43.7327C0.201645 39.8502 0.43121 35.9339 1.12921 32.0942C1.83962 28.1963 2.99365 24.5714 4.81776 21.0292C6.61085 17.5484 8.94993 14.3651 11.7419 11.6081C14.5339 8.84488 17.7541 6.53251 21.2751 4.76297C24.8551 2.9597 28.5219 1.81579 32.4648 1.11656C36.3488 0.426528 40.3104 0.196519 44.2378 0.0922479C51.7886 0.000244141 53.9291 0.000244141 56.0697 0.000244141H80.658H120.178L97.342 0.00944452L121.933 0.000244141C130.157 0.0247785 131.96 0.0431792 133.765 0.0922479C137.693 0.196519 141.654 0.426528 145.538 1.11656C149.481 1.81579 153.148 2.9597 156.728 4.76297C160.246 6.53251 163.469 8.84488 166.261 11.6081C169.053 14.3651 171.392 17.5484 173.182 21.0292C175.009 24.5714 176.163 28.1963 176.871 32.0942C177.569 35.9339 177.801 39.8502 177.907 43.7327C177.957 45.5145 177.978 47.2963 177.988 49.0812C178 51.1942 178 53.3134 178 55.4295V79.7369V98.2636V122.571Z" fill="#02154F"/>
<path fill-rule="evenodd" clip-rule="evenodd" d="M1.07155e-05 55.4294C1.09005e-05 53.3134 1.10855e-05 51.1973 0.0124167 49.0781C0.0217247 47.2963 0.0434381 45.5145 0.0930751 43.7327C0.198559 39.8532 0.431226 35.9338 1.12922 32.0973C1.83653 28.1994 2.99057 24.5714 4.81778 21.0292C6.60777 17.5515 8.94684 14.3681 11.7388 11.608C14.5309 8.84793 17.7541 6.5325 21.272 4.76296C24.852 2.95969 28.5188 1.81577 32.4617 1.11655C36.3457 0.426517 40.3073 0.196506 44.2347 0.0922429C51.7855 0.000233107 53.9261 0.000233294 56.0666 0.000233481L97.3421 0.000237089L121.93 0.000239239C130.157 0.0247761 131.96 0.0431783 133.762 0.0922508C137.69 0.196514 141.651 0.426526 145.535 1.11656C149.478 1.81578 153.145 2.9597 156.725 4.76297C160.246 6.53251 163.466 8.84794 166.258 11.6081C169.05 14.3682 171.389 17.5515 173.182 21.0292C175.006 24.5714 176.16 28.1994 176.871 32.0973C177.569 35.9339 177.798 39.8532 177.904 43.7327C177.953 45.5145 177.975 47.2963 177.985 49.0781C178 51.1973 178 53.3134 178 55.4295L178 79.7369L178 98.2636L178 122.571C178 124.687 178 126.806 177.984 128.919C177.975 130.704 177.953 132.486 177.904 134.268C177.798 138.15 177.569 142.067 176.871 145.906C176.16 149.804 175.006 153.429 173.182 156.971C171.389 160.452 169.05 163.635 166.258 166.392C163.466 169.156 160.246 171.468 156.725 173.238C153.145 175.041 149.478 176.185 145.535 176.884C141.651 177.574 137.69 177.804 133.762 177.908C126.211 178 124.071 178 121.93 178L97.342 178L57.8225 178L80.658 177.991L56.0666 178C47.8426 177.976 46.0402 177.957 44.2347 177.908C40.3073 177.804 36.3457 177.574 32.4617 176.884C28.5188 176.185 24.852 175.041 21.272 173.238C17.7541 171.468 14.5308 169.156 11.7388 166.392C8.94682 163.635 6.60776 160.452 4.81777 156.971C2.99056 153.429 1.83652 149.804 1.12921 145.906C0.431217 142.067 0.198551 138.15 0.0930672 134.268C0.0434305 132.486 0.0217174 130.704 0.0124097 128.919C4.47552e-06 126.806 4.66078e-06 124.687 4.84578e-06 122.571L6.9708e-06 98.2636L8.59046e-06 79.7368L1.07155e-05 55.4294Z" fill="white"/>
<path opacity="0.95" fill-rule="evenodd" clip-rule="evenodd" d="M178 122.571C178 124.687 178 126.803 177.988 128.922C177.978 130.704 177.957 132.486 177.907 134.268C177.801 138.147 177.569 142.067 176.871 145.903C176.163 149.801 175.009 153.429 173.182 156.971C171.392 160.449 169.053 163.632 166.261 166.392C163.469 169.153 160.246 171.468 156.728 173.238C153.148 175.041 149.481 176.185 145.538 176.884C141.654 177.574 137.693 177.804 133.765 177.908C126.214 178 124.074 178 121.933 178L80.658 178H56.0697C47.8426 177.976 46.0402 177.957 44.2378 177.908C40.3104 177.804 36.3488 177.574 32.4648 176.884C28.5219 176.185 24.8551 175.041 21.2751 173.238C17.7541 171.468 14.5339 169.153 11.7419 166.392C8.94993 163.632 6.61085 160.449 4.81776 156.971C2.99365 153.429 1.83962 149.801 1.12921 145.903C0.43121 142.067 0.201645 138.147 0.0961691 134.268C0.0465334 132.486 0.0248178 130.704 0.0155111 128.922C0 126.803 0 124.687 0 122.571L0 98.2636L0 79.7369L0 55.4295C0 53.3134 0 51.1942 0.0155111 49.0812C0.0248178 47.2963 0.0465334 45.5145 0.0961691 43.7327C0.201645 39.8502 0.43121 35.9339 1.12921 32.0942C1.83962 28.1963 2.99365 24.5714 4.81776 21.0292C6.61085 17.5484 8.94993 14.3651 11.7419 11.6081C14.5339 8.84488 17.7541 6.53251 21.2751 4.76297C24.8551 2.9597 28.5219 1.81579 32.4648 1.11656C36.3488 0.426528 40.3104 0.196519 44.2378 0.0922479C51.7886 0.000244141 53.9291 0.000244141 56.0697 0.000244141L80.658 0.000244141L120.178 0.000244141L97.342 0.00944452L121.933 0.000244141C130.157 0.0247785 131.96 0.0431792 133.765 0.0922479C137.693 0.196519 141.654 0.426528 145.538 1.11656C149.481 1.81579 153.148 2.9597 156.728 4.76297C160.246 6.53251 163.469 8.84488 166.261 11.6081C169.053 14.3651 171.392 17.5484 173.182 21.0292C175.009 24.5714 176.163 28.1963 176.871 32.0942C177.569 35.9339 177.801 39.8502 177.907 43.7327C177.957 45.5145 177.978 47.2963 177.988 49.0812C178 51.1942 178 53.3134 178 55.4295V79.7369V98.2636L178 122.571Z" fill="url(#paint0_linear_1127_68)"/>
<g clip-path="url(#clip0_1127_68)">
<path d="M88.562 152.097L86.9446 152.037C75.4597 151.62 64.2977 148.17 54.62 142.046C44.9423 135.922 37.1025 127.347 31.9163 117.214C26.7301 107.082 24.3871 95.7606 25.131 84.4297C25.8749 73.0987 29.6786 62.1717 36.1463 52.7857L37.059 51.4595L53.5153 83.6127C52.5048 90.8196 53.7438 98.1597 57.0668 104.653C60.3898 111.145 65.6387 116.482 72.1124 119.95L88.562 152.097Z" fill="url(#paint1_linear_1127_68)"/>
<path d="M153.638 88.5452C153.666 103.326 148.466 117.653 138.937 129.047C129.407 140.442 116.148 148.189 101.45 150.949L88.2356 124.253H89.3228C95.5021 124.254 101.579 122.691 106.972 119.711C112.365 116.731 116.895 112.435 120.129 107.233C123.363 102.03 125.193 96.0958 125.444 89.9957C125.695 83.8955 124.359 77.8337 121.563 72.3892C118.767 66.9447 114.605 62.2994 109.474 58.897C104.344 55.4946 98.4156 53.4487 92.2566 52.9548C86.0976 52.4609 79.9133 53.5355 74.2945 56.0759C68.6756 58.6164 63.8098 62.5378 60.1619 67.4655L46.9473 40.743C58.6413 30.5401 73.722 24.9379 89.3228 25.0013C106.374 25.0206 122.722 31.7216 134.779 43.6342C146.836 55.5468 153.618 71.6982 153.638 88.5452Z" fill="url(#paint2_linear_1127_68)"/>
</g>
<defs>
<linearGradient id="paint0_linear_1127_68" x1="101.882" y1="88.3508" x2="154.942" y2="195.43" gradientUnits="userSpaceOnUse">
<stop stop-color="white" stop-opacity="0.85"/>
<stop offset="1" stop-color="#DDE4FE"/>
</linearGradient>
<linearGradient id="paint1_linear_1127_68" x1="22.2165" y1="15.1409" x2="90.3188" y2="209.615" gradientUnits="userSpaceOnUse">
<stop offset="0.164203" stop-color="#8594CC"/>
<stop offset="0.431264" stop-color="#DDE4FE"/>
<stop offset="0.550769" stop-color="#DDE4FE"/>
<stop offset="0.700224" stop-color="#8594CC"/>
</linearGradient>
<linearGradient id="paint2_linear_1127_68" x1="113.819" y1="28.8016" x2="137.847" y2="144.911" gradientUnits="userSpaceOnUse">
<stop stop-color="#0A63FD"/>
<stop offset="0.165732" stop-color="#01CFFC"/>
<stop offset="0.354699" stop-color="#0087FF"/>
<stop offset="0.540421" stop-color="#0069FF"/>
<stop offset="0.698073" stop-color="#01CFFC"/>
<stop offset="0.885485" stop-color="#0A84FF"/>
<stop offset="1" stop-color="#0467F3"/>
</linearGradient>
<clipPath id="clip0_1127_68">
<rect width="128.63" height="127.094" fill="white" transform="translate(25 25.0002)"/>
</clipPath>
</defs>
</svg>
