<svg width="216" height="166" viewBox="0 0 216 166" fill="none" xmlns="http://www.w3.org/2000/svg">
<path d="M96.8868 73.0395C90.7064 70.3689 85.658 65.6157 82.6201 59.6073C79.5823 53.5988 78.7473 46.7154 80.2605 40.1549L70.5403 20.9382C65.9508 27.6826 63.2521 35.5335 62.7249 43.6743C62.1977 51.8151 63.8613 59.9485 67.5427 67.2284C71.2241 74.5084 76.7887 80.6691 83.6578 85.0697C90.527 89.4703 98.4497 91.9501 106.602 92.2512L96.8868 73.0395Z" fill="url(#paint0_linear_1127_120)"/>
<path d="M108.288 0.970723C102.065 0.964847 95.9075 2.23469 90.1951 4.70182C84.4826 7.16895 79.3366 10.781 75.0748 15.3149L83.4575 32.1201C85.9985 27.7643 89.6401 24.1531 94.017 21.6486C98.3939 19.1441 103.352 17.8344 108.395 17.8507C113.438 17.8671 118.388 19.2089 122.748 21.7417C127.109 24.2745 130.727 27.9092 133.24 32.2814C135.753 36.6536 137.072 41.6095 137.065 46.6523C137.058 51.6951 135.725 56.6475 133.201 61.0129C130.676 65.3782 127.049 69.0032 122.681 71.5242C118.314 74.0452 113.36 75.3736 108.317 75.3763C107.193 75.3747 106.069 75.3099 104.951 75.1824L113.334 91.9927C124.91 90.6744 135.545 84.9805 143.059 76.077C150.574 67.1734 154.401 55.7338 153.756 44.1007C153.111 32.4676 148.043 21.5211 139.59 13.5028C131.137 5.48458 119.938 1.00119 108.288 0.970723Z" fill="url(#paint1_linear_1127_120)"/>
<path d="M37.624 144.331C30.7476 144.331 25.3647 139.078 25.3647 132.331C25.3645 130.721 25.6848 129.126 26.3069 127.64C26.929 126.155 27.8405 124.808 28.9882 123.678C30.136 122.548 31.4971 121.658 32.9923 121.059C34.4875 120.46 36.0869 120.165 37.6973 120.19C44.6132 120.19 49.9566 125.46 49.9566 132.19C49.9553 133.8 49.634 135.394 49.0113 136.879C48.3887 138.364 47.4772 139.711 46.3297 140.84C45.1823 141.97 43.8218 142.86 42.3273 143.459C40.8327 144.059 39.234 144.355 37.624 144.331ZM37.624 125.37C33.9998 125.37 31.2605 128.307 31.2605 132.19C31.2605 136.074 34.0787 139.151 37.6917 139.151C41.3046 139.151 44.1172 136.215 44.1172 132.331C44.1516 131.437 44.0099 130.544 43.7001 129.705C43.3945 128.869 42.925 128.102 42.3192 127.45C41.7147 126.804 40.9863 126.286 40.1773 125.928C39.3733 125.57 38.5043 125.38 37.624 125.37Z" fill="#DDE4FE"/>
<path d="M64.6461 143.852V134.208C64.6461 132.033 63.5188 130.685 61.6813 130.685C59.8438 130.685 58.5869 132.066 58.5869 134.208V143.852H52.973V129.011C52.973 127.839 51.9754 126.757 51.1412 126.035L55.8702 126.097C58.2149 126.097 58.57 127.619 58.57 128.555L59.376 128.701C59.7445 127.98 60.3006 127.37 60.986 126.938C61.6714 126.506 62.4607 126.266 63.2708 126.244C63.6259 126.216 63.9697 126.199 64.3079 126.199C68.028 126.199 70.2544 128.414 70.2544 132.145V143.83L64.6461 143.852Z" fill="#DDE4FE"/>
<path d="M92.4667 143.852V129.096L85.9679 139.241L79.5085 129.18V143.835H73.9115V120.664H80.1905L86.0411 130.336L91.8918 120.664H98.1651V143.852H92.4667Z" fill="#DDE4FE"/>
<path d="M106.962 149.443C105.094 149.444 103.256 148.973 101.619 148.074L103.31 144.258C104.105 144.724 104.995 145.003 105.914 145.075C106.27 145.097 106.627 145.023 106.945 144.861C107.264 144.696 107.534 144.451 107.729 144.151L107.847 143.97L100.824 126.12H106.63L110.575 138.261L114.295 126.153H119.982L113.557 143.705C111.945 147.983 110.288 149.443 106.962 149.443Z" fill="#DDE4FE"/>
<path d="M143.961 144.027L138.922 129.372L133.928 144.027H128.811L121.201 120.664H127.249L131.634 135.504L136.487 120.602H141.56L146.408 135.504L150.804 120.664H156.683L149.068 144.027H143.961Z" fill="#DDE4FE"/>
<path d="M184.565 149.443C182.698 149.443 180.86 148.972 179.222 148.074L180.879 144.269C181.675 144.739 182.568 145.02 183.489 145.092C183.844 145.115 184.199 145.041 184.515 144.878C184.834 144.715 185.105 144.47 185.298 144.168L185.428 143.987L178.422 126.12H184.244L188.19 138.227L191.91 126.12H197.597L191.166 143.666C189.548 147.983 187.891 149.443 184.565 149.443Z" fill="#DDE4FE"/>
<path d="M164.057 144.54C159.091 144.54 155.337 140.453 155.337 135.087C155.337 129.721 159.091 125.59 164.057 125.59C165.11 125.561 166.159 125.742 167.143 126.122C168.126 126.502 169.023 127.074 169.783 127.805L170.465 128.487V126.137H175.995V143.987H170.539V141.885H169.975L169.783 142.015C169.057 142.819 168.17 143.462 167.179 143.903C166.196 144.336 165.131 144.553 164.057 144.54ZM165.967 130.268C165.345 130.255 164.727 130.372 164.153 130.612C163.572 130.85 163.046 131.205 162.608 131.655C162.167 132.106 161.824 132.643 161.599 133.233C161.369 133.823 161.259 134.454 161.278 135.087C161.27 136.351 161.762 137.567 162.648 138.469C163.078 138.91 163.592 139.26 164.16 139.499C164.728 139.738 165.337 139.861 165.953 139.861C166.569 139.861 167.179 139.738 167.747 139.499C168.314 139.26 168.829 138.91 169.259 138.469C170.144 137.567 170.637 136.351 170.629 135.087C170.649 134.456 170.541 133.827 170.313 133.239C170.09 132.649 169.749 132.112 169.31 131.66C168.878 131.212 168.358 130.857 167.783 130.618C167.208 130.378 166.59 130.259 165.967 130.268Z" fill="#DDE4FE"/>
<path opacity="0.9" d="M0 107.472L6.76374 107.303L13.5275 107.173L27.0211 106.919C36.0169 106.788 45.0146 106.679 54.0141 106.592C63.0324 106.491 72.0113 106.468 81.007 106.406L108 106.344L134.993 106.401C144.011 106.463 152.99 106.485 161.986 106.592C170.982 106.7 179.983 106.784 188.979 106.919L202.473 107.173L209.236 107.297L216 107.472L209.236 107.641L202.473 107.771L188.979 108.024C179.983 108.156 170.985 108.265 161.986 108.351C152.968 108.453 143.989 108.475 134.993 108.537L108 108.593L81.007 108.531C71.9887 108.475 63.0099 108.447 54.0141 108.345C45.0183 108.244 36.0169 108.148 27.0211 108.019L13.5275 107.765L6.76374 107.641L0 107.472Z" fill="url(#paint2_linear_1127_120)"/>
<path d="M41.9411 163.51L41.3235 161.686H38.7503L38.1327 163.51H37.0425L39.4801 156.759H40.6124L43.05 163.51H41.9411ZM40.0229 157.882L39.0169 160.843H41.0568L40.0509 157.882H40.0229ZM43.6722 163.51V158.588H44.636V159.426H44.6594C44.8232 158.85 45.263 158.509 45.8432 158.509C45.9882 158.509 46.1145 158.532 46.1894 158.546V159.487C46.1098 159.454 45.932 159.43 45.7355 159.43C45.0852 159.43 44.6828 159.866 44.6828 160.563V163.51H43.6722ZM50.826 160.282H49.8621C49.7592 159.758 49.3662 159.342 48.7065 159.342C47.9252 159.342 47.4105 159.992 47.4105 161.049C47.4105 162.13 47.9298 162.757 48.7159 162.757C49.3381 162.757 49.7452 162.415 49.8621 161.845H50.8353C50.7277 162.893 49.8902 163.604 48.7065 163.604C47.2982 163.604 46.3812 162.64 46.3812 161.049C46.3812 159.487 47.2982 158.499 48.6972 158.499C49.9651 158.499 50.7371 159.313 50.826 160.282ZM51.5886 163.51V156.759H52.5898V159.412H52.6132C52.8846 158.836 53.4226 158.504 54.1712 158.504C55.252 158.504 55.8977 159.225 55.8977 160.338V163.51H54.8824V160.535C54.8824 159.809 54.5174 159.374 53.8063 159.374C53.0577 159.374 52.5992 159.889 52.5992 160.666V163.51H51.5886ZM56.9083 163.51V158.588H57.9189V163.51H56.9083ZM57.4136 157.868C57.0907 157.868 56.8287 157.61 56.8287 157.292C56.8287 156.969 57.0907 156.712 57.4136 156.712C57.7411 156.712 58.0031 156.969 58.0031 157.292C58.0031 157.61 57.7411 157.868 57.4136 157.868ZM61.0115 159.313C60.305 159.313 59.809 159.852 59.7576 160.595H62.2186C62.1952 159.842 61.718 159.313 61.0115 159.313ZM62.2139 162.065H63.173C63.0327 162.963 62.1811 163.604 61.0536 163.604C59.6079 163.604 58.733 162.626 58.733 161.073C58.733 159.529 59.6219 158.499 61.0115 158.499C62.3777 158.499 63.2292 159.463 63.2292 160.956V161.302H59.7529V161.363C59.7529 162.219 60.2676 162.785 61.077 162.785C61.6525 162.785 62.0782 162.495 62.2139 162.065ZM69.1384 163.51H67.9921L65.5826 156.759H66.7195L68.5582 162.331H68.5863L70.4297 156.759H71.5479L69.1384 163.51ZM73.6346 163.604C72.2263 163.604 71.2999 162.635 71.2999 161.049C71.2999 159.468 72.231 158.499 73.6346 158.499C75.0382 158.499 75.9693 159.468 75.9693 161.049C75.9693 162.635 75.0429 163.604 73.6346 163.604ZM73.6346 162.771C74.43 162.771 74.9399 162.144 74.9399 161.049C74.9399 159.959 74.4253 159.332 73.6346 159.332C72.8439 159.332 72.3292 159.959 72.3292 161.049C72.3292 162.144 72.8439 162.771 73.6346 162.771ZM76.7833 163.51V158.588H77.7939V163.51H76.7833ZM77.2886 157.868C76.9658 157.868 76.7038 157.61 76.7038 157.292C76.7038 156.969 76.9658 156.712 77.2886 156.712C77.6162 156.712 77.8782 156.969 77.8782 157.292C77.8782 157.61 77.6162 157.868 77.2886 157.868ZM83.0528 160.282H82.089C81.9861 159.758 81.593 159.342 80.9333 159.342C80.152 159.342 79.6374 159.992 79.6374 161.049C79.6374 162.13 80.1567 162.757 80.9427 162.757C81.565 162.757 81.972 162.415 82.089 161.845H83.0622C82.9545 162.893 82.1171 163.604 80.9333 163.604C79.5251 163.604 78.608 162.64 78.608 161.049C78.608 159.487 79.5251 158.499 80.924 158.499C82.1919 158.499 82.9639 159.313 83.0528 160.282ZM85.8366 159.313C85.1301 159.313 84.6342 159.852 84.5827 160.595H87.0437C87.0203 159.842 86.5431 159.313 85.8366 159.313ZM87.039 162.065H87.9982C87.8578 162.963 87.0063 163.604 85.8787 163.604C84.433 163.604 83.5581 162.626 83.5581 161.073C83.5581 159.529 84.447 158.499 85.8366 158.499C87.2028 158.499 88.0543 159.463 88.0543 160.956V161.302H84.5781V161.363C84.5781 162.219 85.0927 162.785 85.9021 162.785C86.4776 162.785 86.9034 162.495 87.039 162.065ZM95.3063 163.51L94.6887 161.686H92.1154L91.4978 163.51H90.4077L92.8453 156.759H93.9775L96.4151 163.51H95.3063ZM93.388 157.882L92.3821 160.843H94.422L93.4161 157.882H93.388ZM98.2071 163.51H97.1591V156.759H98.2071V163.51ZM100.088 163.562C99.7464 163.562 99.475 163.29 99.475 162.949C99.475 162.607 99.7464 162.336 100.088 162.336C100.429 162.336 100.701 162.607 100.701 162.949C100.701 163.29 100.429 163.562 100.088 163.562ZM103.41 156.759H105.791C107.798 156.759 108.987 157.994 108.987 160.123C108.987 162.256 107.803 163.51 105.791 163.51H103.41V156.759ZM104.458 157.662V162.603H105.693C107.125 162.603 107.915 161.728 107.915 160.132C107.915 158.541 107.12 157.662 105.693 157.662H104.458ZM109.866 163.51V158.588H110.83V159.426H110.854C111.017 158.85 111.457 158.509 112.037 158.509C112.182 158.509 112.309 158.532 112.384 158.546V159.487C112.304 159.454 112.126 159.43 111.93 159.43C111.279 159.43 110.877 159.866 110.877 160.563V163.51H109.866ZM113.043 163.51V158.588H114.054V163.51H113.043ZM113.549 157.868C113.226 157.868 112.964 157.61 112.964 157.292C112.964 156.969 113.226 156.712 113.549 156.712C113.876 156.712 114.138 156.969 114.138 157.292C114.138 157.61 113.876 157.868 113.549 157.868ZM119.289 158.588L117.525 163.51H116.44L114.667 158.588H115.743L116.978 162.523H116.997L118.232 158.588H119.289ZM121.788 159.313C121.081 159.313 120.585 159.852 120.534 160.595H122.995C122.971 159.842 122.494 159.313 121.788 159.313ZM122.99 162.065H123.949C123.809 162.963 122.957 163.604 121.83 163.604C120.384 163.604 119.509 162.626 119.509 161.073C119.509 159.529 120.398 158.499 121.788 158.499C123.154 158.499 124.005 159.463 124.005 160.956V161.302H120.529V161.363C120.529 162.219 121.044 162.785 121.853 162.785C122.429 162.785 122.854 162.495 122.99 162.065ZM126.56 161.629H127.594C127.669 162.298 128.319 162.738 129.208 162.738C130.06 162.738 130.673 162.298 130.673 161.695C130.673 161.171 130.303 160.857 129.428 160.642L128.553 160.432C127.313 160.132 126.738 159.552 126.738 158.612C126.738 157.447 127.753 156.647 129.194 156.647C130.621 156.647 131.599 157.447 131.632 158.612H130.612C130.551 157.938 129.994 157.531 129.18 157.531C128.366 157.531 127.809 157.943 127.809 158.541C127.809 159.019 128.165 159.299 129.035 159.515L129.779 159.697C131.164 160.025 131.739 160.581 131.739 161.569C131.739 162.832 130.733 163.623 129.133 163.623C127.636 163.623 126.625 162.851 126.56 161.629ZM134.28 162.794C134.986 162.794 135.538 162.308 135.538 161.667V161.279L134.327 161.353C133.723 161.395 133.381 161.662 133.381 162.083C133.381 162.514 133.737 162.794 134.28 162.794ZM133.999 163.594C133.035 163.594 132.362 162.996 132.362 162.111C132.362 161.25 133.021 160.722 134.191 160.656L135.538 160.577V160.198C135.538 159.65 135.169 159.323 134.551 159.323C133.966 159.323 133.601 159.604 133.513 160.043H132.558C132.614 159.154 133.372 158.499 134.589 158.499C135.782 158.499 136.544 159.131 136.544 160.118V163.51H135.576V162.701H135.552C135.267 163.248 134.645 163.594 133.999 163.594ZM137.822 163.51V159.388H137.143V158.598H137.822V158.116C137.822 157.161 138.271 156.712 139.272 156.712C139.478 156.712 139.707 156.736 139.838 156.759V157.507C139.74 157.489 139.604 157.479 139.468 157.479C139.029 157.479 138.823 157.699 138.823 158.134V158.598H139.819V159.388H138.837V163.51H137.822ZM142.468 159.313C141.761 159.313 141.265 159.852 141.214 160.595H143.675C143.651 159.842 143.174 159.313 142.468 159.313ZM143.67 162.065H144.629C144.489 162.963 143.637 163.604 142.51 163.604C141.064 163.604 140.189 162.626 140.189 161.073C140.189 159.529 141.078 158.499 142.468 158.499C143.834 158.499 144.685 159.463 144.685 160.956V161.302H141.209V161.363C141.209 162.219 141.724 162.785 142.533 162.785C143.109 162.785 143.534 162.495 143.67 162.065ZM146.229 163.562C145.888 163.562 145.616 163.29 145.616 162.949C145.616 162.607 145.888 162.336 146.229 162.336C146.571 162.336 146.842 162.607 146.842 162.949C146.842 163.29 146.571 163.562 146.229 163.562ZM155.367 160.703C155.367 162.532 154.286 163.623 152.457 163.623C150.524 163.623 149.308 162.27 149.308 160.104C149.308 157.975 150.52 156.647 152.442 156.647C153.944 156.647 155.081 157.536 155.315 158.883H154.239C153.986 158.046 153.327 157.564 152.447 157.564C151.156 157.564 150.379 158.509 150.379 160.095C150.379 161.709 151.179 162.706 152.466 162.706C153.561 162.706 154.319 162.004 154.333 160.979V160.862H152.588V160.015H155.367V160.703ZM158.328 159.313C157.622 159.313 157.126 159.852 157.074 160.595H159.535C159.512 159.842 159.035 159.313 158.328 159.313ZM159.531 162.065H160.49C160.349 162.963 159.498 163.604 158.37 163.604C156.925 163.604 156.05 162.626 156.05 161.073C156.05 159.529 156.939 158.499 158.328 158.499C159.694 158.499 160.546 159.463 160.546 160.956V161.302H157.07V161.363C157.07 162.219 157.584 162.785 158.394 162.785C158.969 162.785 159.395 162.495 159.531 162.065ZM161.627 157.423H162.642V158.588H163.578V159.388H162.642V162.102C162.642 162.528 162.829 162.72 163.241 162.72C163.344 162.72 163.508 162.71 163.573 162.696V163.496C163.461 163.524 163.236 163.543 163.012 163.543C162.015 163.543 161.627 163.164 161.627 162.214V159.388H160.911V158.588H161.627V157.423ZM166.479 156.759H169.01C170.32 156.759 171.232 157.662 171.232 158.977C171.232 160.296 170.301 161.204 168.977 161.204H167.527V163.51H166.479V156.759ZM167.527 157.643V160.324H168.729C169.641 160.324 170.161 159.833 170.161 158.981C170.161 158.13 169.641 157.643 168.734 157.643H167.527ZM173.356 162.794C174.063 162.794 174.615 162.308 174.615 161.667V161.279L173.403 161.353C172.799 161.395 172.458 161.662 172.458 162.083C172.458 162.514 172.814 162.794 173.356 162.794ZM173.076 163.594C172.112 163.594 171.438 162.996 171.438 162.111C171.438 161.25 172.098 160.722 173.267 160.656L174.615 160.577V160.198C174.615 159.65 174.245 159.323 173.628 159.323C173.043 159.323 172.678 159.604 172.589 160.043H171.635C171.691 159.154 172.449 158.499 173.665 158.499C174.858 158.499 175.621 159.131 175.621 160.118V163.51H174.652V162.701H174.629C174.343 163.248 173.721 163.594 173.076 163.594ZM176.636 163.51V158.588H177.647V163.51H176.636ZM177.141 157.868C176.818 157.868 176.556 157.61 176.556 157.292C176.556 156.969 176.818 156.712 177.141 156.712C177.469 156.712 177.731 156.969 177.731 157.292C177.731 157.61 177.469 157.868 177.141 157.868ZM180.529 163.594C179.284 163.594 178.461 162.603 178.461 161.049C178.461 159.496 179.284 158.509 180.519 158.509C181.226 158.509 181.787 158.864 182.063 159.407H182.082V156.759H183.097V163.51H182.115V162.673H182.096C181.806 163.234 181.245 163.594 180.529 163.594ZM180.795 159.36C179.995 159.36 179.495 160.015 179.495 161.049C179.495 162.088 179.995 162.738 180.795 162.738C181.572 162.738 182.091 162.079 182.091 161.049C182.091 160.029 181.572 159.36 180.795 159.36ZM184.894 163.562C184.552 163.562 184.281 163.29 184.281 162.949C184.281 162.607 184.552 162.336 184.894 162.336C185.235 162.336 185.507 162.607 185.507 162.949C185.507 163.29 185.235 163.562 184.894 163.562Z" fill="#DDE4FE"/>
<defs>
<linearGradient id="paint0_linear_1127_120" x1="60.7066" y1="-4.79765" x2="109.876" y2="132.272" gradientUnits="userSpaceOnUse">
<stop offset="0.164203" stop-color="#8594CC"/>
<stop offset="0.431264" stop-color="#DDE4FE"/>
<stop offset="0.550769" stop-color="#DDE4FE"/>
<stop offset="0.700224" stop-color="#8594CC"/>
</linearGradient>
<linearGradient id="paint1_linear_1127_120" x1="124.434" y1="3.71758" x2="141.466" y2="87.7719" gradientUnits="userSpaceOnUse">
<stop stop-color="#0A63FD"/>
<stop offset="0.165732" stop-color="#01CFFC"/>
<stop offset="0.354699" stop-color="#0087FF"/>
<stop offset="0.540421" stop-color="#0069FF"/>
<stop offset="0.698073" stop-color="#01CFFC"/>
<stop offset="0.885485" stop-color="#0A84FF"/>
<stop offset="1" stop-color="#0467F3"/>
</linearGradient>
<linearGradient id="paint2_linear_1127_120" x1="-22.016" y1="107.641" x2="228.045" y2="107.314" gradientUnits="userSpaceOnUse">
<stop stop-color="#CCE2FC" stop-opacity="0.5"/>
<stop offset="0.25" stop-color="#CCE2FC" stop-opacity="0.5"/>
<stop offset="0.5" stop-color="#DDE4FE"/>
<stop offset="0.74" stop-color="#CCE2FC" stop-opacity="0.5"/>
<stop offset="1" stop-color="#CCE2FC" stop-opacity="0.5"/>
</linearGradient>
</defs>
</svg>
