<svg width="14" height="14" viewBox="0 0 14 14" fill="none" xmlns="http://www.w3.org/2000/svg">
<g id="4">
<path id="icon" d="M3.21935 12.8322C3.21951 12.8908 3.20802 12.9489 3.18554 13.0031C3.16307 13.0573 3.13004 13.1066 3.08836 13.1481C3.04668 13.1896 2.99717 13.2225 2.94265 13.245C2.88814 13.2675 2.8297 13.279 2.77067 13.279H0.858655C0.79953 13.2792 0.740957 13.2677 0.686302 13.2453C0.631647 13.2229 0.581989 13.19 0.540181 13.1485C0.498374 13.107 0.465242 13.0577 0.44269 13.0034C0.420137 12.9491 0.408609 12.8909 0.408768 12.8322V4.87038C0.408768 4.75186 0.456167 4.6382 0.540537 4.5544C0.624907 4.4706 0.739338 4.42352 0.858655 4.42352H2.77067C2.88978 4.42383 3.0039 4.47106 3.08801 4.55482C3.17212 4.63859 3.21935 4.75207 3.21935 4.87038V12.8322ZM1.81406 3.66914C1.45527 3.66914 1.10454 3.56346 0.806222 3.36547C0.507902 3.16748 0.27539 2.88607 0.138088 2.55683C0.000786334 2.22758 -0.0351385 1.86529 0.0348573 1.51576C0.104853 1.16624 0.277626 0.845176 0.531326 0.593182C0.785027 0.341188 1.10826 0.169578 1.46015 0.100053C1.81205 0.0305276 2.17679 0.0662105 2.50827 0.202589C2.83975 0.338967 3.12306 0.569915 3.32239 0.866229C3.52172 1.16254 3.62812 1.51091 3.62812 1.86729C3.62812 2.34517 3.43699 2.80348 3.09679 3.14139C2.75659 3.4793 2.29518 3.66914 1.81406 3.66914ZM13.2136 12.8634C13.2138 12.9174 13.2032 12.9709 13.1824 13.0208C13.1617 13.0707 13.1313 13.1161 13.0928 13.1543C13.0544 13.1924 13.0087 13.2227 12.9585 13.2433C12.9082 13.2639 12.8544 13.2744 12.8 13.2742H10.7441C10.6897 13.2744 10.6358 13.2639 10.5856 13.2433C10.5353 13.2227 10.4897 13.1924 10.4512 13.1543C10.4128 13.1161 10.3823 13.0707 10.3616 13.0208C10.3409 12.9709 10.3303 12.9174 10.3305 12.8634V9.13356C10.3305 8.57619 10.4949 6.69265 8.86349 6.69265C7.5997 6.69265 7.3421 7.98158 7.29131 8.56058V12.8682C7.29132 12.9761 7.24857 13.0797 7.17231 13.1566C7.09605 13.2335 6.99239 13.2775 6.88375 13.279H4.89796C4.8437 13.279 4.78998 13.2684 4.73986 13.2477C4.68975 13.2271 4.64423 13.1968 4.60592 13.1586C4.56761 13.1205 4.53726 13.0752 4.51661 13.0253C4.49595 12.9755 4.4854 12.9221 4.48556 12.8682V4.83554C4.4854 4.78165 4.49595 4.72825 4.51661 4.67842C4.53726 4.62858 4.56761 4.58328 4.60592 4.54512C4.64423 4.50695 4.68975 4.47667 4.73986 4.45601C4.78998 4.43535 4.8437 4.42472 4.89796 4.42472H6.88375C6.99344 4.42472 7.09865 4.468 7.17621 4.54504C7.25378 4.62209 7.29735 4.72658 7.29735 4.83554V5.52985C7.76659 4.82953 8.46198 4.29138 9.94588 4.29138C13.233 4.29138 13.2112 7.34012 13.2112 9.01464L13.2136 12.8634Z" fill="white"/>
</g>
</svg>
