<svg width="14" height="14" viewBox="0 0 14 14" fill="none" xmlns="http://www.w3.org/2000/svg">
<g id="3">
<path id="Vector" d="M3.8233 0.0966797H9.3605C11.4699 0.0966797 13.1838 1.81057 13.1838 3.91998V9.45718C13.1838 10.4712 12.781 11.4437 12.064 12.1607C11.347 12.8777 10.3745 13.2805 9.3605 13.2805H3.8233C1.71389 13.2805 0 11.5666 0 9.45718V3.91998C0 2.90598 0.402811 1.93351 1.11982 1.2165C1.83683 0.499491 2.8093 0.0966797 3.8233 0.0966797ZM3.69146 1.41506C3.06208 1.41506 2.45848 1.66508 2.01344 2.11012C1.5684 2.55516 1.31838 3.15876 1.31838 3.78814V9.58902C1.31838 10.9008 2.37968 11.9621 3.69146 11.9621H9.49234C10.1217 11.9621 10.7253 11.7121 11.1704 11.267C11.6154 10.822 11.8654 10.2184 11.8654 9.58902V3.78814C11.8654 2.47636 10.8041 1.41506 9.49234 1.41506H3.69146ZM10.0526 2.40385C10.2712 2.40385 10.4808 2.49066 10.6353 2.64519C10.7898 2.79971 10.8766 3.0093 10.8766 3.22783C10.8766 3.44637 10.7898 3.65595 10.6353 3.81048C10.4808 3.96501 10.2712 4.05182 10.0526 4.05182C9.83411 4.05182 9.62453 3.96501 9.47 3.81048C9.31547 3.65595 9.22866 3.44637 9.22866 3.22783C9.22866 3.0093 9.31547 2.79971 9.47 2.64519C9.62453 2.49066 9.83411 2.40385 10.0526 2.40385ZM6.5919 3.39263C7.46604 3.39263 8.30438 3.73988 8.92249 4.35799C9.5406 4.9761 9.88785 5.81444 9.88785 6.68858C9.88785 7.56272 9.5406 8.40106 8.92249 9.01917C8.30438 9.63728 7.46604 9.98453 6.5919 9.98453C5.71776 9.98453 4.87942 9.63728 4.26131 9.01917C3.6432 8.40106 3.29595 7.56272 3.29595 6.68858C3.29595 5.81444 3.6432 4.9761 4.26131 4.35799C4.87942 3.73988 5.71776 3.39263 6.5919 3.39263ZM6.5919 4.71101C6.06742 4.71101 5.56441 4.91936 5.19355 5.29023C4.82268 5.66109 4.61433 6.1641 4.61433 6.68858C4.61433 7.21307 4.82268 7.71607 5.19355 8.08693C5.56441 8.4578 6.06742 8.66615 6.5919 8.66615C7.11639 8.66615 7.61939 8.4578 7.99025 8.08693C8.36112 7.71607 8.56947 7.21307 8.56947 6.68858C8.56947 6.1641 8.36112 5.66109 7.99025 5.29023C7.61939 4.91936 7.11639 4.71101 6.5919 4.71101Z" fill="white"/>
</g>
</svg>
